<?xml version="1.0" encoding="UTF-8" standalone="no"?>
<!DOCTYPE svg PUBLIC "-//W3C//DTD SVG 1.1//EN" "http://www.w3.org/Graphics/SVG/1.1/DTD/svg11.dtd">
<svg width="456" height="456" viewBox="0 0 456 456" xmlns="http://www.w3.org/2000/svg" xml:space="preserve" style="fill-rule:evenodd;clip-rule:evenodd;stroke-linejoin:round;stroke-miterlimit:2">
    <path d="M357.949 310.607h-31.442c-5.112-17.014-20.745-29.517-39.399-29.517s-34.276 12.503-39.399 29.517H98.197a11.805 11.805 0 0 0-8.349 3.458 11.805 11.805 0 0 0 0 16.697 11.805 11.805 0 0 0 8.349 3.458h149.511c5.112 17.014 20.745 29.517 39.399 29.517s34.276-12.503 39.399-29.517h31.442a11.805 11.805 0 0 0 8.349-3.458 11.805 11.805 0 0 0 0-16.697 11.805 11.805 0 0 0-8.349-3.458h.001Zm-70.842 29.518a17.709 17.709 0 0 1-17.372-21.165 17.712 17.712 0 0 1 13.915-13.916 17.71 17.71 0 0 1 21.166 17.371 17.732 17.732 0 0 1-17.709 17.71Zm70.842-218.428h-31.442c-5.125-17.014-20.745-29.517-39.399-29.517s-34.276 12.503-39.4 29.517H98.197a11.805 11.805 0 0 0-11.806 11.807 11.807 11.807 0 0 0 11.807 11.807h149.511c5.124 17.014 20.745 29.518 39.4 29.518s34.276-12.503 39.399-29.517h31.442a11.805 11.805 0 0 0 8.349-3.458 11.805 11.805 0 0 0 0-16.697 11.805 11.805 0 0 0-8.349-3.458Zm-70.842 29.517a17.709 17.709 0 0 1-17.372-21.164 17.71 17.71 0 0 1 32.096-6.386 17.711 17.711 0 0 1 2.985 9.84 17.733 17.733 0 0 1-17.709 17.711Zm70.842 64.938h-149.51c-5.124-17.014-20.745-29.517-39.399-29.517s-34.276 12.503-39.399 29.517H98.198a11.805 11.805 0 0 0-11.807 11.807 11.807 11.807 0 0 0 11.807 11.807h31.442c5.124 17.014 20.745 29.517 39.399 29.517s34.276-12.503 39.399-29.517h149.51a11.807 11.807 0 0 0 0-23.614h.001Zm-188.908 29.516a17.712 17.712 0 0 1-16.363-10.933 17.711 17.711 0 0 1 23.14-23.14 17.713 17.713 0 0 1 10.933 16.363 17.731 17.731 0 0 1-17.711 17.711Z" fill="#fff"/>
</svg>
