<?xml version="1.0" encoding="UTF-8" standalone="no"?>
<!DOCTYPE svg PUBLIC "-//W3C//DTD SVG 1.1//EN" "http://www.w3.org/Graphics/SVG/1.1/DTD/svg11.dtd">
<svg width="1024" height="1024" viewBox="0 0 1024 1024" version="1.1" xmlns="http://www.w3.org/2000/svg" xmlns:xlink="http://www.w3.org/1999/xlink" xml:space="preserve" xmlns:serif="http://www.serif.com/" style="fill-rule:evenodd;clip-rule:evenodd;stroke-linejoin:round;stroke-miterlimit:2;">
        <path d="M803.816 697.503H733.209C721.729 659.297 686.624 631.219 644.733 631.219C602.842 631.219 567.763 659.297 556.257 697.503H220.513C213.481 697.503 206.737 700.296 201.765 705.269C196.792 710.241 193.999 716.985 193.999 724.017C193.999 731.049 196.792 737.793 201.765 742.765C206.737 747.738 213.481 750.531 220.513 750.531H556.256C567.736 788.737 602.841 816.815 644.732 816.815C686.623 816.815 721.702 788.737 733.208 750.531H803.814C810.846 750.531 817.59 747.738 822.562 742.765C827.535 737.793 830.328 731.049 830.328 724.017C830.328 716.985 827.535 710.241 822.562 705.269C817.59 700.296 810.846 697.503 803.814 697.503H803.816ZM644.733 763.788C636.867 763.789 629.177 761.457 622.636 757.087C616.095 752.717 610.997 746.506 607.986 739.239C604.976 731.972 604.188 723.975 605.722 716.26C607.256 708.545 611.044 701.458 616.606 695.895C622.168 690.333 629.255 686.545 636.97 685.01C644.685 683.476 652.682 684.263 659.949 687.274C667.217 690.284 673.428 695.382 677.798 701.922C682.168 708.463 684.5 716.153 684.5 724.019C684.487 734.562 680.293 744.669 672.838 752.125C665.383 759.58 655.276 763.774 644.733 763.788Z" fill="white"/>
        <path d="M803.816 273.284H733.209C721.7 235.078 686.624 207 644.733 207C602.842 207 567.763 235.078 556.256 273.284H220.513C213.481 273.284 206.737 276.077 201.765 281.05C196.793 286.022 194 292.766 194 299.798C194 306.829 196.793 313.573 201.765 318.545C206.737 323.518 213.481 326.311 220.513 326.311H556.256C567.763 364.518 602.841 392.596 644.733 392.596C686.625 392.596 721.703 364.518 733.209 326.312H803.815C810.847 326.312 817.591 323.519 822.563 318.546C827.536 313.574 830.329 306.83 830.329 299.798C830.329 292.766 827.536 286.022 822.563 281.05C817.591 276.077 810.847 273.284 803.815 273.284H803.816ZM644.733 339.568C636.867 339.569 629.177 337.237 622.636 332.867C616.095 328.498 610.997 322.287 607.987 315.019C604.976 307.752 604.188 299.756 605.722 292.041C607.256 284.325 611.043 277.239 616.605 271.676C622.167 266.114 629.254 262.325 636.969 260.79C644.684 259.256 652.68 260.043 659.948 263.053C667.215 266.063 673.427 271.161 677.797 277.701C682.167 284.241 684.5 291.931 684.5 299.797C684.487 310.34 680.294 320.448 672.839 327.904C665.384 335.36 655.276 339.554 644.733 339.568Z" fill="white"/>
        <path d="M803.816 485.394H468.073C456.566 447.188 421.488 419.11 379.597 419.11C337.706 419.11 302.627 447.188 291.121 485.394H220.513C213.481 485.394 206.737 488.187 201.765 493.16C196.793 498.132 194 504.876 194 511.907C194 518.939 196.793 525.683 201.765 530.655C206.737 535.628 213.481 538.421 220.513 538.421H291.12C302.627 576.627 337.705 604.705 379.596 604.705C421.487 604.705 456.566 576.627 468.072 538.421H803.814C810.846 538.421 817.59 535.628 822.562 530.655C827.534 525.683 830.328 518.939 830.328 511.907C830.328 504.876 827.534 498.132 822.562 493.16C817.59 488.187 810.846 485.394 803.814 485.394H803.816ZM379.6 551.676C371.734 551.676 364.045 549.343 357.504 544.973C350.964 540.603 345.867 534.392 342.856 527.125C339.846 519.857 339.059 511.861 340.593 504.146C342.128 496.431 345.916 489.345 351.478 483.783C357.04 478.221 364.126 474.433 371.841 472.898C379.556 471.364 387.553 472.151 394.82 475.161C402.087 478.172 408.298 483.269 412.668 489.809C417.038 496.35 419.371 504.039 419.371 511.905C419.358 522.449 415.164 532.558 407.708 540.013C400.253 547.469 390.144 551.663 379.6 551.676Z" fill="white"/>
</svg>
