<svg width="1024" height="1024" viewBox="0 0 1024 1024" xmlns="http://www.w3.org/2000/svg" xml:space="preserve" style="fill-rule:evenodd;clip-rule:evenodd;stroke-linejoin:round;stroke-miterlimit:2">
    <path d="M803.815 697.503h-70.607c-11.48-38.207-46.585-66.284-88.475-66.284s-76.971 28.077-88.475 66.284H220.513a26.509 26.509 0 0 0-18.749 7.765 26.509 26.509 0 0 0 0 37.495 26.509 26.509 0 0 0 18.749 7.765h335.744c11.48 38.207 46.585 66.284 88.475 66.284s76.971-28.077 88.475-66.284h70.607a26.509 26.509 0 0 0 18.749-7.765 26.509 26.509 0 0 0 0-37.495 26.509 26.509 0 0 0-18.749-7.765h.002Zm-159.084 66.286a39.768 39.768 0 0 1-39.011-47.528 39.774 39.774 0 0 1 31.248-31.25 39.77 39.77 0 0 1 47.531 39.009 39.819 39.819 0 0 1-39.768 39.77Zm159.084-490.505h-70.607C721.699 235.077 686.623 207 644.733 207s-76.971 28.077-88.477 66.284H220.513a26.509 26.509 0 0 0-26.512 26.514 26.514 26.514 0 0 0 26.514 26.514h335.744c11.507 38.207 46.585 66.286 88.477 66.286s76.971-28.077 88.475-66.284h70.607a26.509 26.509 0 0 0 18.749-7.765 26.509 26.509 0 0 0 0-37.495 26.509 26.509 0 0 0-18.749-7.765Zm-159.084 66.284a39.768 39.768 0 0 1-39.011-47.526 39.77 39.77 0 0 1 72.075-14.34 39.772 39.772 0 0 1 6.703 22.097 39.821 39.821 0 0 1-39.768 39.772Zm159.084 145.826H468.073c-11.507-38.207-46.585-66.284-88.475-66.284s-76.971 28.077-88.475 66.284h-70.608a26.509 26.509 0 0 0-26.514 26.514 26.514 26.514 0 0 0 26.514 26.514h70.607c11.507 38.207 46.585 66.284 88.475 66.284s76.971-28.077 88.475-66.284h335.742a26.514 26.514 0 0 0 0-53.028h.002Zm-424.214 66.282a39.774 39.774 0 0 1-36.745-24.551 39.772 39.772 0 0 1 51.964-51.964 39.777 39.777 0 0 1 24.551 36.745 39.817 39.817 0 0 1-39.772 39.772Z" fill="#fff"/>
</svg>
