<svg width="682" height="682" viewBox="0 0 682 682" fill="none" xmlns="http://www.w3.org/2000/svg">
<path d="M226.809 172.261V105.739H173.592V172.261H107.07V225.478H173.592V292H226.809V225.478H293.331V172.261H226.809Z" fill="black"/>
<path d="M575 455H388V508H575V455Z" fill="black"/>
<path d="M601.992 0.63501H80.461C59.2972 0.659095 39.0072 9.07704 24.0421 24.0421C9.07704 39.0072 0.659095 59.2972 0.63501 80.461L0.63501 601.991C0.659095 623.155 9.07704 643.445 24.0421 658.41C39.0072 673.375 59.2972 681.793 80.461 681.817H601.991C623.155 681.793 643.445 673.375 658.41 658.41C673.375 643.445 681.793 623.155 681.817 601.991V80.461C681.793 59.2974 673.375 39.0075 658.41 24.0425C643.445 9.07743 623.156 0.659359 601.992 0.63501V0.63501ZM53.852 589.635V80.461C53.86 73.4063 56.6659 66.6428 61.6544 61.6544C66.6428 56.6659 73.4063 53.86 80.461 53.852H589.635L53.852 589.635ZM628.6 601.988C628.592 609.043 625.786 615.806 620.798 620.795C615.809 625.783 609.046 628.589 601.991 628.597H90.153L628.6 90.153V601.988Z" fill="black"/>
</svg>
