<svg width="1024" height="1024" viewBox="0 0 1024 1024" fill="none" xmlns="http://www.w3.org/2000/svg">
<g clip-path="url(#clip0_1_2)">
<path d="M1024 0H0V1024H1024V0Z" fill="#FFE600"/>
<path d="M1023.5 0.5H0.5V1023.5H1023.5V0.5Z" stroke="#707070"/>
<path d="M399.809 345.261V278.739H346.592V345.261H280.07V398.478H346.592V465H399.809V398.478H466.331V345.261H399.809Z" fill="black"/>
<path d="M748 628H561V681H748V628Z" fill="black"/>
<path d="M774.992 173.635H253.461C232.297 173.659 212.007 182.077 197.042 197.042C182.077 212.007 173.659 232.297 173.635 253.461L173.635 774.991C173.659 796.155 182.077 816.445 197.042 831.41C212.007 846.375 232.297 854.793 253.461 854.817H774.991C796.155 854.793 816.445 846.375 831.41 831.41C846.375 816.445 854.793 796.155 854.817 774.991V253.461C854.793 232.297 846.375 212.007 831.41 197.042C816.445 182.077 796.156 173.659 774.992 173.635V173.635ZM226.852 762.635V253.461C226.86 246.406 229.666 239.643 234.654 234.654C239.643 229.666 246.406 226.86 253.461 226.852H762.635L226.852 762.635ZM801.6 774.988C801.592 782.043 798.786 788.806 793.798 793.795C788.809 798.783 782.046 801.589 774.991 801.597H263.153L801.6 263.153V774.988Z" fill="black"/>
</g>
<defs>
<clipPath id="clip0_1_2">
<rect width="1024" height="1024" fill="white"/>
</clipPath>
</defs>
</svg>
