<?xml version="1.0" encoding="UTF-8" standalone="no"?>
<!DOCTYPE svg PUBLIC "-//W3C//DTD SVG 1.1//EN" "http://www.w3.org/Graphics/SVG/1.1/DTD/svg11.dtd">
<svg width="290" height="456" viewBox="0 0 290 456" version="1.1" xmlns="http://www.w3.org/2000/svg" xmlns:xlink="http://www.w3.org/1999/xlink" xml:space="preserve" xmlns:serif="http://www.serif.com/" style="fill-rule:evenodd;clip-rule:evenodd;stroke-linejoin:round;stroke-miterlimit:2;">
    <path d="M277.614 221.526h-31.889a41.639 41.639 0 0 0-64.924-21.624 41.635 41.635 0 0 0-14.993 21.624H14.178a11.979 11.979 0 0 0-8.468 20.443 11.979 11.979 0 0 0 8.468 3.507h151.63a41.63 41.63 0 0 0 64.924 21.624 41.635 41.635 0 0 0 14.993-21.624h31.887a11.982 11.982 0 0 0 11.975-11.975 11.982 11.982 0 0 0-11.975-11.975h.002Zm-71.848 29.937a17.962 17.962 0 1 1 17.962-17.962 17.976 17.976 0 0 1-17.962 17.962Zm71.848-221.528h-31.889a41.639 41.639 0 0 0-64.924-21.624 41.635 41.635 0 0 0-14.993 21.624H14.178a11.975 11.975 0 0 0 0 23.948h151.63a41.635 41.635 0 0 0 79.917 0h31.887a11.977 11.977 0 0 0 0-23.95l.002.002ZM205.766 59.87a17.962 17.962 0 1 1 17.962-17.962 17.976 17.976 0 0 1-17.962 17.962Zm71.848 65.861H125.982a41.635 41.635 0 0 0-79.917 0H14.178a11.973 11.973 0 1 0 0 23.948h31.887a41.635 41.635 0 0 0 79.917 0h151.632a11.973 11.973 0 0 0 8.362-20.383 11.973 11.973 0 0 0-8.362-3.564ZM86.023 155.666a17.962 17.962 0 1 1 17.962-17.962 17.982 17.982 0 0 1-17.962 17.962ZM7.785 444.986v-30.841h2.688l14.099 24.056h-1.41l13.966-24.056h2.688v30.841h-3.128v-25.95h.749l-12.865 22.029H23.03l-12.953-22.029h.837v25.95H7.786Zm37.143 0 14.099-30.841h3.216l14.099 30.841h-3.437L59.952 416.04h1.322l-12.951 28.946h-3.392Zm5.551-8.239.969-2.643H69.38l.969 2.643h-19.87Zm42.743 8.503c-3.934 0-7.034-1.13-9.296-3.392-2.26-2.262-3.392-5.611-3.392-10.045v-17.668h3.26v17.535c0 3.641.824 6.329 2.467 8.063 1.646 1.734 3.965 2.599 6.961 2.599 3.027 0 5.362-.866 7.005-2.599 1.646-1.734 2.467-4.421 2.467-8.063v-17.535h3.172v17.667c0 4.434-1.13 7.783-3.392 10.045-2.232 2.262-5.316 3.392-9.252 3.392Zm22.47-.264v-30.841h3.26v30.841h-3.26Zm38.353.264c-2.35 0-4.523-.381-6.521-1.146a15.993 15.993 0 0 1-5.155-3.304 15.436 15.436 0 0 1-3.392-4.979c-.793-1.91-1.19-3.994-1.19-6.256s.397-4.346 1.19-6.256a15.103 15.103 0 0 1 3.437-4.979 15.416 15.416 0 0 1 5.155-3.26c1.996-.793 4.17-1.19 6.521-1.19s4.494.368 6.432 1.101c1.967.734 3.641 1.85 5.023 3.348l-2.027 2.071c-1.293-1.293-2.716-2.218-4.274-2.776a14.792 14.792 0 0 0-5.023-.837 14.121 14.121 0 0 0-5.287.969 12.321 12.321 0 0 0-4.186 2.688 12.601 12.601 0 0 0-2.776 4.053c-.645 1.527-.969 3.216-.969 5.067 0 1.822.324 3.509.969 5.067a13.112 13.112 0 0 0 2.776 4.097 13.248 13.248 0 0 0 4.186 2.688c1.615.617 3.362.925 5.243.925 1.762 0 3.421-.264 4.979-.793 1.586-.529 3.04-1.425 4.362-2.688l1.85 2.467a15.158 15.158 0 0 1-5.155 2.952 19.665 19.665 0 0 1-6.168.969Zm8.195-4.318v-11.366h3.128v11.763l-3.128-.397Zm26.19 4.054v-5.111l-.132-.837v-8.547c0-1.967-.56-3.481-1.674-4.538-1.088-1.057-2.718-1.586-4.89-1.586-1.498 0-2.923.249-4.274.749a10.911 10.911 0 0 0-3.437 1.983l-1.41-2.335c1.174-.998 2.584-1.762 4.23-2.291a16.09 16.09 0 0 1 5.199-.837c2.996 0 5.3.749 6.917 2.247 1.643 1.469 2.467 3.716 2.467 6.741v14.362h-2.996Zm-7.975.22c-1.734 0-3.247-.28-4.538-.837-1.264-.588-2.234-1.381-2.908-2.379-.676-1.029-1.013-2.203-1.013-3.525 0-1.205.278-2.291.837-3.26.586-.998 1.527-1.791 2.82-2.379 1.322-.617 3.084-.925 5.287-.925h7.975v2.335h-7.886c-2.234 0-3.789.397-4.67 1.19-.853.793-1.278 1.778-1.278 2.952 0 1.322.513 2.379 1.542 3.172 1.027.793 2.467 1.19 4.318 1.19 1.762 0 3.274-.397 4.538-1.19 1.291-.822 2.232-1.998 2.82-3.525l.705 2.159c-.588 1.527-1.617 2.747-3.084 3.657-1.441.91-3.26 1.366-5.463 1.366Zm19.465-.22v-32.691h3.128v32.691h-3.128Zm11.832 0v-32.691h3.128v32.691h-3.128Zm21.659.22c-2.41 0-4.525-.5-6.344-1.498a11.241 11.241 0 0 1-4.274-4.186c-1.029-1.791-1.542-3.833-1.542-6.124 0-2.291.485-4.318 1.454-6.08a10.957 10.957 0 0 1 4.053-4.141c1.731-1.029 3.67-1.542 5.816-1.542 2.172 0 4.097.5 5.772 1.498a10.288 10.288 0 0 1 4.009 4.141c.969 1.762 1.454 3.804 1.454 6.124 0 .148-.015.308-.044.485v.485H223.63v-2.335h18.46l-1.234.925c0-1.674-.368-3.157-1.101-4.45-.705-1.322-1.674-2.35-2.908-3.084s-2.659-1.101-4.274-1.101c-1.586 0-3.011.368-4.274 1.101a7.644 7.644 0 0 0-2.952 3.084c-.705 1.322-1.057 2.835-1.057 4.538v.485c0 1.762.381 3.32 1.146 4.67a8.554 8.554 0 0 0 3.26 3.128c1.41.734 3.009 1.101 4.802 1.101 1.41 0 2.716-.249 3.921-.749a8.157 8.157 0 0 0 3.172-2.291l1.762 2.027a9.9 9.9 0 0 1-3.877 2.82c-1.529.645-3.216.969-5.067.969Zm16.764-.22v-23.13h2.996v6.3l-.308-1.101c.645-1.762 1.734-3.099 3.26-4.009 1.527-.941 3.421-1.41 5.683-1.41v3.04h-.352a1.485 1.485 0 0 0-.352-.044c-2.439 0-4.346.749-5.728 2.247-1.381 1.469-2.071 3.569-2.071 6.3v11.807h-3.128Zm18.504 8.768a9.34 9.34 0 0 1-3.128-.529 6.773 6.773 0 0 1-2.511-1.586l1.454-2.335c.588.557 1.22.985 1.894 1.278.705.324 1.485.485 2.335.485 1.029 0 1.91-.293 2.643-.881.764-.557 1.485-1.557 2.159-2.996l1.498-3.392.352-.485 9.517-21.456h3.084l-11.587 25.906c-.645 1.498-1.366 2.688-2.159 3.569-.762.881-1.599 1.498-2.511 1.85-.91.381-1.923.573-3.04.573Zm6.168-8.107-10.662-23.791h3.26l9.428 21.236-2.027 2.555Z" fill="#fff"/>
</svg>
